<svg id="RECHTS" xmlns="http://www.w3.org/2000/svg" viewBox="0 0 400 232"><style>.st0{fill:#cde9ef}.st1{fill:#ffc92f}.st2{fill:#ffb600}.st3{fill:#55241a}.st4{fill:#6a3f36}.st5{fill:#c0ce06}.st6{fill:#00aae6}.st7{fill:#84d0f0}.st8{fill:#9ec300}.st9{fill:#85a600}.st10{fill:#fff}.st11{fill:#693e36}.st12{fill:#f6861e}.st13{fill:#f8b000}.st14{fill:#775048}.st15{fill:#7e5951}.st16{opacity:.17;fill:#fff;enable-background:new}.st17{display:none}.st18{display:inline}.st19{fill:#689800}.st19,.st20,.st21{display:inline}.st20{fill:#fff}.st21{fill:#f81c13}.st22{fill:#e1f5f5}.st23{opacity:.22}.st24{fill:#397483}.st25{fill:#c6aaaa}.st26{opacity:.18}.st27{fill:#e7f1f5}.st28{fill:#c7e4eb}.st29{fill:none;stroke:#f6861e;stroke-width:1.5;stroke-linecap:round;stroke-miterlimit:10}.st30{fill:#f8bc00}.st31{fill:#fb821e}.st32{fill:none;stroke:#f6861e;stroke-width:1.2;stroke-linecap:round;stroke-miterlimit:10}</style><g id="XMLID_263_"><path class="st0" d="M391.2 195.4H11.7c-.9 0-1.7-.8-1.7-1.7 0-.9.8-1.7 1.7-1.7h379.5c.9 0 1.7.8 1.7 1.7 0 1-.8 1.7-1.7 1.7zM149.9 202H27.1c-.7 0-1.3-.6-1.3-1.3 0-.7.6-1.3 1.3-1.3H150c.7 0 1.3.6 1.3 1.3 0 .7-.6 1.3-1.4 1.3zm228.6 0H255.7c-.7 0-1.3-.6-1.3-1.3 0-.7.6-1.3 1.3-1.3h122.9c.7 0 1.3.6 1.3 1.3 0 .7-.6 1.3-1.4 1.3zm-98.3 6.8h-51.8c-.7 0-1.3-.6-1.3-1.3 0-.7.6-1.3 1.3-1.3h51.8c.7 0 1.3.6 1.3 1.3.1.7-.5 1.3-1.3 1.3z"/><path class="st1" d="M113.3 77.6h259.8v78.6H113.3z" id="XMLID_408_"/><g id="XMLID_402_"><path class="st2" d="M113.3 84.8h259.8v1.9H113.3z" id="XMLID_407_"/><path class="st2" d="M113.3 77.6h259.8v1.9H113.3z" id="XMLID_1_"/><path class="st2" d="M113.3 99.5h259.8v1.9H113.3z" id="XMLID_406_"/><path class="st2" d="M113.3 114.1h259.8v1.9H113.3z" id="XMLID_405_"/><path class="st2" d="M113.3 128.8h259.8v1.9H113.3z" id="XMLID_404_"/><path class="st2" d="M113.3 143.4h259.8v1.9H113.3z" id="XMLID_403_"/></g><g id="XMLID_384_"><g id="XMLID_400_"><path class="st3" d="M29.5 153.5l2-7.3c.3-1.2 1.5-2.1 2.7-2.1h2.5c1.3 0 2.4.9 2.7 2.1l2 7.3h3l-2.1-8c-.7-2.5-2.9-4.2-5.5-4.2h-2.5c-2.6 0-4.8 1.7-5.5 4.2l-2.2 8h2.9z" id="XMLID_401_"/></g><g id="XMLID_396_"><g id="XMLID_398_"><path class="st3" d="M84.4 143.5H97c3.2 0 6.1-2.3 6.8-5.4l3-13.3c.2-.8-.3-1.5-1.1-1.7-.8-.2-1.5.3-1.7 1.1l-3 13.3c-.4 1.9-2.1 3.2-4 3.2H84.4c-.8 0-1.4.6-1.4 1.4 0 .8.6 1.4 1.4 1.4z" id="XMLID_399_"/></g><path class="st3" d="M100.3 153l-2-7.3c-.3-1.2-1.5-2.1-2.7-2.1h-2.5c-1.3 0-2.4.9-2.7 2.1l-2 7.3h-3l2.1-8c.7-2.5 2.9-4.2 5.5-4.2h2.5c2.6 0 4.8 1.7 5.5 4.2l2.2 8h-2.9z" id="XMLID_397_"/></g><path transform="rotate(-43.772 63.777 143.604)" class="st4" d="M62.4 128h2.8v31.2h-2.8z" id="XMLID_395_"/><path class="st3" d="M81.6 133.8H50.4c-.9 0-1.7-.7-1.7-1.7 0-.9.7-1.7 1.7-1.7h31.2c.9 0 1.7.7 1.7 1.7s-.7 1.7-1.7 1.7z" id="XMLID_394_"/><path transform="rotate(-46.235 68.467 143.583)" class="st3" d="M52.9 142.2h31.2v2.8H52.9z" id="XMLID_393_"/><g id="XMLID_385_"><path class="st5" d="M70.7 121.7c-2.2 0-2.2 3.4 0 3.4s2.2-3.4 0-3.4z" id="XMLID_392_"/><path class="st5" d="M69 121.7c-2.2 0-2.2 3.4 0 3.4s2.2-3.4 0-3.4z" id="XMLID_391_"/><path class="st5" d="M68.4 119c-2.2 0-2.2 3.4 0 3.4s2.2-3.4 0-3.4z" id="XMLID_390_"/><path class="st5" d="M64.1 122.6c-2.2 0-2.2 3.4 0 3.4s2.2-3.4 0-3.4z" id="XMLID_389_"/><path class="st5" d="M67 120.4c-.7-.7-1.8-.7-2.4 0l-.1.1c-.7.7-.7 1.8 0 2.4.7.7 1.8.7 2.4 0l.1-.1c.7-.7.7-1.8 0-2.4z" id="XMLID_388_"/><path class="st6" d="M68.9 130.4h-3.4c-1.1 0-1.9-.9-1.9-1.9v-3.9h7.2v3.9c0 1-.9 1.9-1.9 1.9z" id="XMLID_387_"/><path class="st5" d="M67.3 122.1c-2.2 0-2.2 3.4 0 3.4 2.1 0 2.1-3.4 0-3.4z" id="XMLID_386_"/></g></g><path class="st7" d="M32.1 75.2H37v75.9h-4.9z" id="XMLID_383_"/><g id="XMLID_377_"><path class="st8" d="M289 140.3c-.2 0-.5 0-.7.1v-.4c0-2.1-1.7-3.8-3.8-3.8-1.7 0-3.2 1.2-3.6 2.7-.7-.6-1.6-1-2.6-1-.7 0-1.4.2-2 .6-.2-1.9-1.8-3.4-3.8-3.4-2.1 0-3.8 1.7-3.8 3.8 0 .2 0 .3.1.5-.4-.2-.8-.2-1.3-.2-2 0-3.6 1.6-3.6 3.6s1.6 3.6 3.6 3.6c.4 0 .9-.1 1.2-.2v2.9h18.5v-1.5c.5.3 1.1.5 1.8.5 2.1 0 3.8-1.7 3.8-3.8.1-2.3-1.7-4-3.8-4z" id="XMLID_381_"/><path class="st9" d="M289 140.3c-.2 0-.5 0-.7.1v-.4c0-1.4-.7-2.6-1.8-3.2.2.9.4 1.6 0 2.5-.4.8-1.2 1.3-2.1 1.5.5.6.4 1.6 0 2.3s-1.1 1.2-1.8 1.6c-1.5.8-3.3 1.3-4.9.9.2 1 .5 2.1 1 2.9.1.2.2.3.4.5h8.1v-1.5c.5.3 1.1.5 1.8.5 2.1 0 3.8-1.7 3.8-3.8.1-2.2-1.7-3.9-3.8-3.9z" id="XMLID_379_"/><path class="st10" d="M262.4 145.4l2.8 6.9H292l2.8-6.9c.4-.9-.3-1.9-1.3-1.9h-29.9c-.9 0-1.6 1-1.2 1.9z" id="XMLID_378_"/><circle class="st10" cx="270.3" cy="140.8" r=".7"/><circle class="st10" cx="273.4" cy="138.6" r=".7"/><circle class="st10" cx="275.4" cy="141.2" r=".7"/><circle class="st10" cx="280" cy="140.9" r=".7"/><circle class="st10" cx="283.9" cy="138.7" r=".7"/><circle class="st10" cx="287.3" cy="141.5" r=".7"/></g><g id="XMLID_348_"><path class="st3" d="M200.6 93.9h41.1v34.3h-41.1z" id="XMLID_355_"/><path class="st11" d="M227.8 95.1l-27.1 27.1-.1 6h29l12.1-12.1v-21z"/><path class="st12" d="M197 131.9h48.5v1.8H197z" id="XMLID_350_"/><path class="st13" d="M196.9 133.7h48.5v1.9c0 1.1-.9 1.9-1.9 1.9h-44.7c-1.1 0-1.9-.9-1.9-1.9v-1.9z" id="XMLID_349_"/><path class="st10" d="M196.9 90.2v41.7h48.5V90.2h-48.5zm44.8 38h-41.1V93.9h41.1v34.3z"/><path class="st14" d="M212.8 93.9v12.2c0 3.6-2.9 6.4-6.4 6.4v15.7h-5.7V93.9h12.1zm16.8 0v12.2c0 3.6 2.9 6.4 6.4 6.4v15.7h5.7V93.9h-12.1z"/><path class="st15" d="M206.3 128.2v-11.6l-5.6 5.6-.1 6zm23.3-22.1c0 3.6 2.9 6.4 6.4 6.4v9.2l5.7-5.7V95.1h-12.1v11z"/><path class="st13" d="M206.2 120.8L205 117h4.9l-1.2 3.8c1.5.5 2.6 1.9 2.6 3.6 0 2.1-1.7 3.8-3.8 3.8s-3.8-1.7-3.8-3.8c-.1-1.7 1-3.1 2.5-3.6z" id="XMLID_351_"/><path class="st3" d="M221.6 116.8h4.9c0-1.1.4-2.1 1-3l-.2-2.9 2.3 1.2c.6-.3 1.3-.4 2.1-.4.7 0 1.5.2 2.1.4l2.4-1.2-.2 3c.6.8.9 1.9.9 3v11.4h-22.7v-4.1c.1-4.2 3.4-7.4 7.4-7.4z" id="XMLID_353_"/><path class="st10" d="M220 92.5h2.4v37.9H220z" id="XMLID_352_"/></g><g id="XMLID_337_"><circle class="st12" cx="245.4" cy="143.7" r="3.4" id="XMLID_346_"/><circle class="st12" cx="243.2" cy="143.7" r="3.4" id="XMLID_345_"/><circle class="st12" cx="254.2" cy="143.7" r="3.4" id="XMLID_344_"/><circle class="st12" cx="248.8" cy="138.1" r="3.1" id="XMLID_343_"/><circle class="st12" cx="245.4" cy="139.9" r="3.1" id="XMLID_342_"/><circle class="st12" cx="252.9" cy="138.9" r="2.5" id="XMLID_341_"/><path class="st10" d="M250.4 152.9h-3.2c-2.6 0-4.9-1.9-5.4-4.5l-.8-4.3h15.5l-.8 4.3c-.4 2.6-2.6 4.5-5.3 4.5z" id="XMLID_340_"/><circle class="st12" cx="250.4" cy="143.2" r="3" id="XMLID_339_"/></g><g id="XMLID_328_"><path class="st10" d="M113.3 90.2h48.8v62.3h-48.8z" id="XMLID_334_"/><path class="st3" d="M113.3 93.9H158v58.6h-44.7z" id="XMLID_333_"/><path class="st11" d="M132.3 95.1l-19 19v21.3l40.3-40.3h-21.3zm-14.4 57.4h40v-40.2l-40 40.2z"/><path class="st16" d="M144.5 133.3h-16.4V127c0-1.1-.9-1.9-1.9-1.9h-7c-1.1 0-1.9.9-1.9 1.9v24.7h27.3v-11.2c1.1 0 2-.9 2-2v-3.1c0-1.2-1-2.1-2.1-2.1zm13.5 8.5h-10.3c-.6 0-1.1.5-1.1 1.1s.5 1.1 1.1 1.1h3.8l-3.3 7.8h1.3l4.1-7.8h4.5v-2.2h-.1z"/><path class="st10" d="M135.1 92.7h2.4v59.8h-2.4z" id="XMLID_329_"/></g><g class="st17"><g class="st18"><path class="st3" d="M177.8 135.4h4.2v6.5h-4.2z"/><path class="st9" d="M190.4 136.4l-5-10.7h2.7l-3.6-7.8h2.2l-6.4-13.6-7.2 13.6h2.7l-4.1 7.8h3.3l-5.7 10.7z"/></g><path class="st19" d="M180.3 104.3l1.9 10.4c.3 1.6-.9 3.1-2.6 3.1h-.1l7.2.1-6.4-13.6z"/><path class="st19" d="M181.9 117.5l1.7 5.9c.3 1.1-.5 2.1-1.6 2.2l-1.9.1 8-.1-3.8-8-2.4-.1z"/><path class="st19" d="M182.6 125.7l1.2 5.5c.5 2.6-1.4 5-4 5h-.2 10.8l-5-10.7-2.8.2z"/><path class="st20" d="M185.7 151.8h-12l-1-12.8h14.1z"/><circle class="st21" cx="181.5" cy="124" r="1.4"/><circle class="st21" cx="181.4" cy="112.6" r="1.4"/><circle class="st21" cx="179.1" cy="118.2" r="1.4"/><circle class="st21" cx="176.1" cy="131.6" r="1.4"/><circle class="st21" cx="182.4" cy="130.3" r="1.4"/></g><path class="st6" d="M29.9 186.3c10.3 0 10.3 5.3 20.6 5.3s10.3-5.3 20.6-5.3 10.3 5.3 20.6 5.3 10.3-5.3 20.6-5.3 10.3 5.3 20.6 5.3 10.3-5.3 20.6-5.3 10.3 5.3 20.6 5.3 10.3-5.3 20.6-5.3 10.3 5.3 20.6 5.3 10.3-5.3 20.6-5.3 19.4 5.3 29.7 5.3 10.3-5.3 20.6-5.3 10.3 5.3 20.6 5.3 10.3-5.3 20.6-5.3 10.3 5.3 20.6 5.3 10.3-5.3 20.6-5.3c9.2 0 10.2 4.1 17.5 5.1V157c0-2.9-2.4-5.3-5.3-5.3h-301v-7.8c0-1.8-1.5-3.3-3.3-3.3H6.8c-1.8 0-3.3 1.5-3.3 3.3v8.9c0 14.3 5.8 27.2 15.1 36.6 2.9-1.5 5.4-3.1 11.3-3.1z"/><path class="st7" d="M5.2 166h381.4v-7.4H3.8c.3 2.5.7 5 1.4 7.4z" id="XMLID_326_"/><g id="XMLID_321_"><circle class="st13" cx="278.6" cy="115.5" r="11.5" id="XMLID_325_"/><circle class="st10" cx="278.6" cy="112.9" r="11.5" id="XMLID_324_"/><circle class="st3" cx="278.6" cy="112.9" r="8" id="XMLID_323_"/><path class="st11" d="M270.6 113.5c.2 1.9 1 3.7 2.3 5l10.7-10.7c-1.4-1.1-3.1-1.7-4.9-1.7-4.3 0-7.7 3.3-8.1 7.4z"/></g><g id="XMLID_304_"><g id="XMLID_307_"><path class="st10" d="M311.6 90.2h48.5v41.7h-48.5z" id="XMLID_320_"/><path class="st3" d="M315.2 93.9h41.1v34.3h-41.1z" id="XMLID_319_"/><path class="st11" d="M339.6 95l-24.4 24.4v8.8h29l12.1-12.1V95z"/><path class="st22" d="M344.1 108.1h.5v7.1h-.5z" id="XMLID_318_"/><path class="st7" d="M342.7 118.2v-3.5h3.4v3.5c0 .4.3.8.8.8.4 0 .8.3.8.8v8.5h-6.6v-8.5c0-.4.3-.8.8-.8.5-.1.8-.4.8-.8z" id="XMLID_317_"/><path class="st6" d="M350.7 128.2h-3.4c-1.2-.6-2.1-1.9-2.1-3.4 0-1.4.7-2.6 1.8-3.2.3-.2.4-.5.4-.8v-3.5h3.2v3.5c0 .3.1.6.4.8 1.1.7 1.8 1.9 1.8 3.3s-.9 2.7-2.1 3.3z" id="XMLID_315_"/><path class="st3" d="M328 117.8c.7 1.7-.5 3.7-.5 3.7s-2.3-.6-2.9-2.3c-.7-1.7-.2-2.6.8-3 .9-.4 2-.1 2.6 1.6z"/><path transform="rotate(-19.718 322.285 120.626)" class="st8" d="M321.9 116.7h.8v7.9h-.8z"/><path transform="rotate(-4.37 324.398 120.347)" class="st8" d="M324 116.3h.8v8.1h-.8z"/><path class="st8" d="M322.2 117.3c-.4 1.4-2.2 2.2-2.2 2.2s-1.2-1.6-.8-3 1.2-1.8 2-1.6c.9.2 1.4 1 1 2.4z"/><path transform="rotate(-74.418 325.564 121.497)" class="st3" d="M322.8 121.1h5.4v.7h-5.4z"/><path transform="rotate(-58.929 327.496 120.764)" class="st8" d="M323.5 120.4h8v.8h-8z"/><path transform="rotate(-37.029 320.658 122.406)" class="st8" d="M320.2 120.2h.8v4.4h-.8z"/><path class="st5" d="M325.5 116c-1.2 1.4-3.5 1.3-3.5 1.3s-.5-2.3.7-3.7 2.2-1.4 3-.7c.7.6.9 1.7-.2 3.1zm-5.8 5.6c-1.2 1.4-2.9 1.7-2.9 1.7s.1-1.8 1.2-3.2 2-1.6 2.5-1.2c.4.5.3 1.4-.8 2.7z"/><path class="st12" d="M318.4 123.8c1 2.6 3.5 4.4 6.5 4.4 2.9 0 5.4-1.8 6.5-4.4h-13z"/><path transform="rotate(-7.022 328.58 121.432)" class="st8" d="M327.3 121h2.6v.8h-2.6z"/><path class="st8" d="M332.3 116.2c.7 1.7-.5 3.7-.5 3.7s-2.3-.6-2.9-2.3c-.7-1.7-.2-2.6.8-3 .9-.4 2-.1 2.6 1.6zm-1.2 5c.9 1 .9 2.3.9 2.3s-1.3-.3-2.1-1.2c-.9-1-.9-1.6-.6-1.9.3-.3.9-.1 1.8.8z"/><path class="st10" d="M334.6 92.5h2.4v37.9h-2.4z" id="XMLID_313_"/><circle class="st1" cx="344.4" cy="107" r="1.2" id="XMLID_312_"/><path class="st22" d="M344.1 113.2l-2-2 .3-.3 2 2z" id="XMLID_311_"/><path class="st22" d="M344.6 112.3l-.4-.4 2.7-2.6.3.3z" id="XMLID_310_"/><circle class="st1" cx="341.9" cy="110.8" r="1.2" id="XMLID_309_"/><circle class="st1" cx="347.1" cy="109.6" r="1.2" id="XMLID_308_"/></g><path class="st12" d="M311.6 131.9h48.5v1.8h-48.5z" id="XMLID_306_"/><path class="st13" d="M311.5 133.7H360v1.9c0 1.1-.9 1.9-1.9 1.9h-44.7c-1.1 0-1.9-.9-1.9-1.9v-1.9z" id="XMLID_305_"/></g><path class="st12" d="M374.1 77.6H8.4c-2.7 0-4.9-2.2-4.9-4.9H379c0 2.7-2.2 4.9-4.9 4.9z" id="XMLID_285_"/><g id="XMLID_281_"><path class="st7" d="M253.2 59.8H266v8.8h-12.8z" id="XMLID_284_"/><path class="st7" d="M267.8 60.7h-16.4c-1.2 0-2.3-1-2.3-2.3 0-1.2 1-2.3 2.3-2.3h16.4c1.2 0 2.3 1 2.3 2.3 0 1.3-1 2.3-2.3 2.3z" id="XMLID_283_"/><path class="st6" d="M253.2 60.7H266v3h-12.8z" id="XMLID_282_"/></g><path class="st1" d="M231.6 67.9h-31.9l1-2.4c.4-1 1.4-1.6 2.5-1.6h25.1c1.1 0 2.2.7 2.5 1.8l.8 2.2z"/><path class="st13" d="M3.5 67.8H379v4.9H3.5z" id="XMLID_280_"/><g id="XMLID_264_"><g id="XMLID_277_" class="st23"><path class="st24" d="M30.8 139c-6.8 2.1-10.5 9.3-8.4 16.1s9.3 10.5 16.1 8.4 10.5-9.3 8.4-16.1c-2.2-6.7-9.4-10.5-16.1-8.4zm5.3 16.9c-2.6.8-5.3-.6-6.2-3.2-.8-2.6.6-5.3 3.2-6.2 2.6-.8 5.3.6 6.2 3.2.8 2.7-.6 5.4-3.2 6.2z"/></g><path class="st10" d="M30.8 136.5c-6.8 2.1-10.5 9.3-8.4 16.1s9.3 10.5 16.1 8.4 10.5-9.3 8.4-16.1c-2.2-6.8-9.4-10.5-16.1-8.4zm5.3 16.9c-2.6.8-5.3-.6-6.2-3.2-.8-2.6.6-5.3 3.2-6.2 2.6-.8 5.3.6 6.2 3.2.8 2.6-.6 5.4-3.2 6.2z" id="XMLID_274_"/><path class="st12" d="M29.9 150.2c-.2-.7-.3-1.3-.2-2l-7.9-.8c-.2 1.7 0 3.5.5 5.2s1.4 3.3 2.5 4.6l6-5.2c-.3-.6-.7-1.1-.9-1.8zm14.4-9.9l-6 5.2c.4.5.8 1.1 1 1.7s.3 1.3.2 2l7.9.8c.2-1.7 0-3.5-.5-5.2-.6-1.6-1.5-3.2-2.6-4.5zM33.1 144c.7-.2 1.3-.3 2-.2l.9-7.8c-1.7-.2-3.5 0-5.2.5s-3.3 1.4-4.6 2.5l5.2 6c.5-.4 1.1-.8 1.7-1zm3 9.4c-.7.2-1.3.3-2 .2l-.8 7.9c1.7.2 3.5 0 5.2-.5s3.3-1.4 4.6-2.5l-5.2-6c-.6.4-1.2.7-1.8.9z" id="XMLID_269_"/><g id="XMLID_267_" class="st23"><path class="st25" d="M37.7 158.6c-6.4 2-13.1-1.2-15.7-7.3l.3 1.2c2.1 6.8 9.3 10.5 16.1 8.4s10.5-9.3 8.4-16.1c-.1-.4-.3-.8-.4-1.2 1.4 6.5-2.3 13-8.7 15z" id="XMLID_268_"/></g><g id="XMLID_265_" class="st26"><path class="st10" d="M31.5 138.8c6.4-2 13.1 1.2 15.7 7.3l-.3-1.2c-2.1-6.8-9.3-10.5-16.1-8.4s-10.5 9.3-8.4 16.1c.1.4.3.8.4 1.2-1.4-6.5 2.3-13 8.7-15z" id="XMLID_266_"/></g></g><path class="st12" d="M305.1 145c-.2-1.6-1.5-2.8-3.2-2.8-1.6 0-3 1.2-3.2 2.8h6.4z"/><path class="st12" d="M308.9 144.2c-.2-1.6-1.5-2.8-3.2-2.8-1.6 0-3 1.2-3.2 2.8h6.4z"/><path class="st12" d="M304.1 144.4s-.8-1.9-.8-4.6c0-2.7.4-6.7.4-6.7s1.4 4.6 1.5 7.1c.1 2.5-1.1 4.2-1.1 4.2zm.8-.4s.7-4.5 1.7-6.3c1-1.9 3.6-3.5 3.6-3.5l-5.3 9.8zm-1.2.6s-.4-4.5-1.4-6.6-3.3-3.8-3.3-3.8.7 2.5 1.8 4.8c.9 2.3 2.9 5.6 2.9 5.6z"/><path class="st12" d="M303.2 144.2s-.8-2.6-3.1-4.5-4.2-1.9-4.2-1.9l7.3 6.4zm1.5-.2s1.4-3 3.6-3.4c2.3-.4 3.6-.2 3.6-.2l-7.2 3.6z"/><circle class="st12" cx="303" cy="144.4" r="1.7"/><circle class="st12" cx="305.2" cy="144.4" r="1.7"/><path class="st10" d="M298.3 146.6h.2l.3 1.4c.4 1.7 1.5 3 3 3.7h4.6c1.5-.7 2.7-2.1 3-3.8l.3-1.3h.2c.4 0 .8-.4.8-.8v-1.2c0-.4-.4-.8-.8-.8h-11.6c-.4 0-.8.4-.8.8v1.2c0 .4.3.8.8.8z"/><path class="st6" d="M18.5 189.4l3.5 3.3h364.5v-12.6H20.4z"/><path class="st27" d="M269.1 27.9c0 .9.7 1.7 1.7 1.7h5.9c.9 0 1.7-.7 1.7-1.7 0-.9-.7-1.7-1.7-1.7h-5.9c-.9.1-1.7.8-1.7 1.7zm7.7 5.6h-21.6c-1.1 0-2 .9-2 2v.2c0 1.1.9 2 2 2h9.4c1 0 1.9.7 2 1.7.1 1.1-.8 2.1-1.9 2.1H260c-1.1 0-2.1.9-2.1 2.1 0 1.1.9 2.1 2.1 2.1h13.4c1.1 0 2.1-.8 2.2-1.9.1-1.2-.9-2.2-2-2.2h-.7c-1.1 0-1.9-.9-1.9-1.9v-.2c0-1.1.9-1.9 1.9-1.9h3.8c1 0 1.8-.6 2-1.6.3-1.4-.7-2.5-1.9-2.5zm-10.4 17h-4.1c-.8 0-1.4-.6-1.4-1.4 0-.8.6-1.4 1.4-1.4h4.1c.8 0 1.4.6 1.4 1.4 0 .8-.6 1.4-1.4 1.4zm-.3-17h-5.6c-.9 0-1.7-.8-1.7-1.7 0-.9.8-1.7 1.7-1.7h5.6c.9 0 1.7.8 1.7 1.7 0 .9-.8 1.7-1.7 1.7z"/></g><g id="XMLID_27_"><path class="st28" d="M195.8 214.9h-16.2c-.4 0-.8-.3-.8-.8 0-.4.3-.8.8-.8h16.2c.4 0 .8.3.8.8 0 .4-.3.8-.8.8z"/><path class="st29" d="M190.2 206.9l1.6 6.4m-5.1-6.4l-.7 1.3c-.7 1.4-2.2 2.4-3.7 2.5l-1.5.2"/><g id="XMLID_64_"><path class="st30" d="M181.9 206.9s2.9 1.3 6.1 1.3c3 0 5.4-1.3 5.4-1.3 3.5-1.8 5.5-5.5 5.5-11.6v-9.9c0-1.9-1.5-3.4-3.4-3.4s-3.4 1.5-3.4 3.4v9.9h-16.5s-.3 8.4 6.3 11.6z"/><path id="XMLID_68_" class="st31" d="M197.8 188.9h3.8c.5 0 1-.4 1-1 0-.5-.4-1-1-1h-3.8c-.5 0-1 .4-1 1s.5 1 1 1z"/><path id="XMLID_67_" class="st30" d="M177.5 192.2s.1 0 0 0l.1 3.2h-2v-1.3c0-1.1.9-1.9 1.9-1.9z"/><path id="XMLID_66_" class="st30" d="M179.3 192.5s.1 0 0 0l.1 2.9h-1.8v-1.2c0-1 .8-1.7 1.7-1.7z"/><path id="XMLID_65_" class="st31" d="M194.5 197.1c.2.6.3 1.3.3 1.9 0 3.6-2.9 6.6-6.6 6.6-3.6 0-6.6-2.9-6.6-6.6 0-.7.1-1.3.3-1.9h12.6z"/></g><path class="st28" d="M154.7 214.9h-13.8c-.4 0-.8-.3-.8-.8 0-.4.3-.8.8-.8h13.8c.4 0 .8.3.8.8 0 .4-.3.8-.8.8z"/><path class="st32" d="M149.6 206.9l1.7 6.4m-3-6.4l-.7 1.3c-.7 1.4-2.1 2.4-3.7 2.5l-1.5.2"/><path class="st30" d="M142.7 207.9s2 1.2 4.8 1.2 4.7-1.2 4.7-1.2c2.2-1.4 3.4-4 3.4-8v-7.1c0-1.3-1.1-2.4-2.4-2.4-1.3 0-2.4 1.1-2.4 2.4v7.1h-11.9c-.1 0-.3 5.5 3.8 8z"/><path id="XMLID_62_" class="st31" d="M154.8 195.3h2.8c.4 0 .7-.3.7-.7 0-.4-.3-.7-.7-.7h-2.8c-.4 0-.7.3-.7.7 0 .4.3.7.7.7z"/><path id="XMLID_61_" class="st30" d="M140.2 197.7l.1 2.3h-1.4v-1c-.1-.7.5-1.3 1.3-1.3z"/><path id="XMLID_58_" class="st30" d="M141.5 197.9v2.1h-1.3v-.9c0-.7.6-1.2 1.3-1.2z"/><path id="XMLID_45_" class="st31" d="M152.4 201.2c.1.4.2.9.2 1.4 0 2.6-2.1 4.7-4.7 4.7s-4.7-2.1-4.7-4.7c0-.5.1-1 .2-1.4h9z"/><path class="st28" d="M97.2 214.9H83.4c-.4 0-.8-.3-.8-.8 0-.4.3-.8.8-.8h13.8c.4 0 .8.3.8.8 0 .4-.3.8-.8.8z"/><path class="st32" d="M92.1 206.9l1.7 6.4m-3-6.4l-.7 1.3c-.7 1.4-2.1 2.4-3.7 2.5l-1.5.2"/><path class="st30" d="M85.2 207.9s2 1.2 4.8 1.2 4.7-1.2 4.7-1.2c2.2-1.4 3.4-4 3.4-8v-7.1c0-1.3-1.1-2.4-2.4-2.4s-2.4 1.1-2.4 2.4v7.1h-12s-.2 5.5 3.9 8z"/><path id="XMLID_24_" class="st31" d="M97.3 195.3h2.8c.4 0 .7-.3.7-.7 0-.4-.3-.7-.7-.7h-2.8c-.4 0-.7.3-.7.7 0 .4.3.7.7.7z"/><path id="XMLID_23_" class="st30" d="M82.7 197.7l.1 2.3h-1.4v-1c-.1-.7.5-1.3 1.3-1.3z"/><path id="XMLID_22_" class="st30" d="M84 197.9v2.1h-1.3v-.9c0-.7.6-1.2 1.3-1.2z"/><path id="XMLID_21_" class="st31" d="M94.9 201.2c.1.4.2.9.2 1.4 0 2.6-2.1 4.7-4.7 4.7s-4.7-2.1-4.7-4.7c0-.5.1-1 .2-1.4h9z"/><path class="st28" d="M125 214.9h-13.8c-.4 0-.8-.3-.8-.8 0-.4.3-.8.8-.8H125c.4 0 .8.3.8.8 0 .4-.4.8-.8.8z"/><path class="st32" d="M116.7 207.1l2.6 6.2m0-5.1l-1.6 2.2c-.3.4-.8.7-1.4.7h-1.7"/><path class="st30" d="M113 207.9s2 1.2 4.8 1.2 4.7-1.2 4.7-1.2c2.2-1.4 3.4-4 3.4-8v-7.1c0-1.3-1.1-2.4-2.4-2.4s-2.4 1.1-2.4 2.4v7.1h-11.9c-.1 0-.3 5.5 3.8 8z"/><path id="XMLID_20_" class="st31" d="M125 195.3h2.8c.4 0 .7-.3.7-.7 0-.4-.3-.7-.7-.7H125c-.4 0-.7.3-.7.7 0 .4.4.7.7.7z"/><path id="XMLID_17_" class="st30" d="M110.4 197.7c.1 0 .1 0 0 0l.1 2.3h-1.4v-1c0-.7.6-1.3 1.3-1.3z"/><path id="XMLID_13_" class="st30" d="M111.7 197.9s.1 0 0 0v2.1h-1.3v-.9c.1-.7.6-1.2 1.3-1.2z"/><path id="XMLID_7_" class="st31" d="M122.7 201.2c.1.4.2.9.2 1.4 0 2.6-2.1 4.7-4.7 4.7s-4.7-2.1-4.7-4.7c0-.5.1-1 .2-1.4h9z"/></g></svg>