<svg id="LINKS" xmlns="http://www.w3.org/2000/svg" width="180" height="232"><style>.st0{fill:#c7e4eb}.st1{fill:#cee7ee}.st2{fill:#e7f1f5}.st3{fill:#ffc92f}.st4{fill:#fff}.st5{fill:#f8b000}.st6{fill:#84d0f0}.st7{fill:#f6861e}.st8{fill:#55241a}.st9{fill:#65382f}.st10{fill:#cde9ef}.st11{fill:#0099d8}.st12{fill:#ffb02f}.st13{fill:#009fe3}.st14{fill:none;stroke:#009fe3;stroke-width:4.5106;stroke-miterlimit:10}.st15{fill:#00aae6}</style><path class="st0" d="M29.8 190.3H70c.7 0 1.2-.6 1.2-1.2 0-.7-.6-1.2-1.2-1.2H29.8c-.7 0-1.2.6-1.2 1.2-.1.6.5 1.2 1.2 1.2z"/><path class="st1" d="M24.9 195.5h22c.7 0 1.2-.6 1.2-1.2 0-.7-.6-1.2-1.2-1.2h-22c-.7 0-1.2.6-1.2 1.2 0 .7.6 1.2 1.2 1.2z"/><path class="st0" d="M55.9 197.1h6.7c.7 0 1.2-.6 1.2-1.2 0-.7-.6-1.2-1.2-1.2h-6.7c-.7 0-1.2.6-1.2 1.2-.1.6.5 1.2 1.2 1.2z"/><path class="st2" d="M128.9 18H.4v107.8h87.3c13.5 0 24.5-11 24.5-24.5v-1.5c9.7-3.3 16.7-12.4 16.7-23.3 0-3.4-.7-6.6-1.9-9.6.6 0 1.3.1 1.9.1 13.5 0 24.5-11 24.5-24.5S142.4 18 128.9 18z"/><circle id="XMLID_261_" class="st3" cx="53.3" cy="70.1" r="43.9"/><g id="XMLID_81_"><g id="XMLID_90_"><path class="st4" d="M55.7 51.8c1.6 0 2.9 1.3 2.9 2.9v11h-5.8v-11c0-1.6 1.3-2.9 2.9-2.9z" id="XMLID_95_"/><path class="st5" d="M53.5 75.4c-.4 0-.8-.3-.8-.8V69c0-.4.3-.8.8-.8.4 0 .8.3.8.8v5.6c-.1.5-.4.8-.8.8z" id="XMLID_94_"/><path class="st5" d="M50.8 75.4c-.4 0-.8-.3-.8-.8V69c0-.4.3-.8.8-.8s.8.3.8.8v5.6c-.1.5-.4.8-.8.8z" id="XMLID_93_"/><path class="st4" d="M51.5 62.3c-3.9 0-13 3.2-13 3.2s9.2 7 13 7c3.9 0 7-3.2 7-7 .1-3.9-3.1-3.2-7-3.2z" id="XMLID_92_"/><path class="st6" d="M51.2 61.1c-2.4 0-8.1 4.4-8.1 4.4s5.7 4.3 8.1 4.3c2.4 0 4.3-2 4.3-4.4 0-2.3-1.9-4.3-4.3-4.3z" id="XMLID_91_"/></g><path class="st5" d="M64.6 56.7H58v-2h4.6c1.1 0 2 .9 2 2z" id="XMLID_83_"/><path class="st7" d="M62.5 54.7v2h2.1c0-1.1-.9-2-2-2h-.1z" id="XMLID_82_"/><path id="XMLID_89_" class="st8" d="M35.5 98.6h30v90.1h-30z"/><path id="XMLID_88_" class="st2" d="M58.7 79.5h-19l-6.5 19.1h32.3z"/><path id="XMLID_87_" class="st4" d="M39.7 79.5l-6.5 19.1h12.5l3.6-19.1z"/><path id="XMLID_86_" class="st9" d="M33.2 98.6h12.5v90.1H33.2z"/><path id="XMLID_85_" class="st2" d="M39.7 75h9.6v4.5h-9.6z"/><path id="XMLID_84_" transform="rotate(-180 54.048 77.297)" class="st0" d="M49.4 75h9.4v4.5h-9.4z"/></g><g id="XMLID_5_"><path class="st10" d="M121.8 219.8H52.5c-.9 0-1.7-.8-1.7-1.7 0-.9.8-1.7 1.7-1.7h69.3c.9 0 1.7.8 1.7 1.7 0 .9-.7 1.7-1.7 1.7z"/><path class="st11" d="M75.1 148.3v.7h1v.7h-1v.8h1v.7h-1v.7h1v.8h-1v.7h20.5v-5.1z"/><g id="XMLID_48_"><path id="XMLID_1397_" class="st7" d="M65.7 170.1c-.3.8-.2 1.8.2 2.6.9 1.7 3 2.3 4.6 1.4l30.3-16.2c1.7-.9 2.3-3 1.4-4.6-.9-1.7-3-2.3-4.6-1.4l-30.3 16.2c-.7.5-1.3 1.2-1.6 2z"/></g><g id="XMLID_46_"><ellipse id="XMLID_47_" transform="rotate(-72.542 65.997 173.373)" class="st11" cx="66" cy="173.4" rx="4.4" ry="4.4"/></g><path class="st3" d="M96 151.6c-10.1-2.2-13.5 9.9-13.5 9.9l-6.4 13.6c-.4.9.1 1.9 1.1 2.1l23.2 4.9c1 .2 2-.5 2.1-1.5l2-15c0 .1 2-11.8-8.5-14z"/><path class="st12" d="M94.7 171.6l6 10.6c.9 0 1.7-.6 1.8-1.5l.5-3.9-8.3-5.2z"/><g id="XMLID_26_"><path id="XMLID_2_" class="st3" d="M110.1 185.2c.9 0 1.8-.3 2.5-1 1.3-1.4 1.3-3.5-.1-4.8l-20.9-20.2c-1.4-1.3-3.5-1.3-4.8.1-1.3 1.4-1.3 3.5.1 4.8l20.9 20.2c.6.5 1.4.9 2.3.9z"/></g><g id="XMLID_15_"><circle id="XMLID_18_" class="st11" cx="111.9" cy="183.1" r="4.4"/></g><path class="st13" d="M77.1 179.7l-.8 5.4 20.6 4.5 2.7-5.9z"/><path id="XMLID_14_" class="st5" d="M101.4 156.7c-5.8 0-10.5-4.7-10.5-10.5v-9.6c0-5.8 4.7-10.5 10.5-10.5s10.5 4.7 10.5 10.5v9.6c0 5.8-4.7 10.5-10.5 10.5z"/><path id="XMLID_6_" class="st4" d="M110.4 144.3c0 1.7-1.4 3.1-3.1 3.1s-3.1-1.4-3.1-3.1h6.2z"/><path class="st14" d="M97.6 185.2l2.2 8.9c.6 2.6.7 5.3.3 8l-1.4 8.2"/><path class="st7" d="M77.1 177.2l23.7 5.1-.6 2.8-23.9-5.1z"/><path class="st8" d="M90.9 145h1.3c1.9 0 3.5-1.6 3.5-3.5v-3.7h-4.8v7.2z"/><path class="st6" d="M101.5 122.5c-5.9 0-10.7 4.8-10.7 10.7v1.8h21.3v-1.8c.1-5.9-4.7-10.7-10.6-10.7z"/><path class="st15" d="M111.7 138.2H91c-.7 0-1.2-.5-1.2-1.2v-1.7c0-.7.5-1.2 1.2-1.2h20.8c.7 0 1.2.5 1.2 1.2v1.7c-.1.7-.6 1.2-1.3 1.2z"/><circle class="st5" cx="101.4" cy="120" r="2.5"/><path class="st15" d="M104.5 160.2l-16.1-7 2.3-5 16 7.1z"/><path class="st14" d="M79 184.2l-2 4.6c-1.5 3.4-4.6 5.9-8.4 6.6l-7.5 1.4"/><path class="st15" d="M108.9 213.9c-.5 0-.8.4-.8.8 0 .9-.7 1.7-1.7 1.7H95.1v1.7h11.3c1.9 0 3.4-1.5 3.4-3.4 0-.5-.4-.8-.9-.8z"/><path class="st15" d="M97.7 217.8c-.3 0-.6-.3-.6-.6v-2.3c0-.3.3-.6.6-.6s.6.3.6.6v2.3c0 .3-.3.6-.6.6zm6.4 0c-.3 0-.6-.3-.6-.6v-2.3c0-.3.3-.6.6-.6s.6.3.6.6v2.3c0 .3-.3.6-.6.6z"/><path class="st8" d="M105.4 212h-4.7l.3-2.2h-4.7l-1 5.3h10.1c.9 0 1.6-.7 1.6-1.6s-.7-1.5-1.6-1.5z"/><path class="st15" d="M58.8 207.6c-.1-.5-.5-.8-1-.7-.9.1-1.8-.5-1.9-1.4l-1.6-11.2-1.7.2.1.6 1.5 10.6c.3 1.8 2 3.1 3.8 2.8.6 0 .9-.4.8-.9z"/><path class="st15" d="M53.4 197.1c0-.3.2-.6.5-.6l2.3-.3c.3 0 .6.2.6.5s-.2.6-.5.6l-2.3.3c-.3 0-.6-.2-.6-.5zm.9 6.3c0-.3.2-.6.5-.6l2.3-.3c.3 0 .6.2.6.5s-.2.6-.5.6l-2.3.3c-.3 0-.6-.2-.6-.5z"/><path class="st8" d="M60.1 203.9l-.7-4.7 2.1-.3-.6-4.5-2.1.3-3.1.4.6 4.5.7 4.7c.1.9.9 1.4 1.8 1.3.9 0 1.5-.8 1.3-1.7z"/></g></svg>