<svg id="SILHOUET" xmlns="http://www.w3.org/2000/svg" width="1032" height="232"><style>.st0{fill:#fff}</style><path class="st0" d="M1007.7 113.5h-28.5V66.1c0-16.7-13.5-30.2-30.2-30.2h-24.9V10.5h1.5c.6 0 1-.5 1-1 0-.6-.5-1-1-1H787c-.8 0-1.5.5-1.7 1.3-.2 1 .6 1.9 1.6 1.9h.5v24.5c0 5.4-4.4 9.7-9.7 9.7h-84.5c-5.4 0-9.7 4.4-9.7 9.7v21.7c0 5.4-4.4 9.7-9.7 9.7H578V68h1.7c.9 0 1.7-.7 1.7-1.7v-3.2c0-.9-.7-1.7-1.7-1.7h-7.3v-1c0-2.6-2.1-4.7-4.7-4.7h-.8c-2.6 0-4.7-2.1-4.7-4.7v-.6c0-2.6-2.1-4.8-4.6-4.7-2.6 0-4.8-2.1-4.8-4.7v-.6c0-2.6-2.1-4.7-4.7-4.7h-1.3c-2.6 0-4.7 2.1-4.7 4.7v.6c0 2.6-2.1 4.8-4.6 4.7-2.6 0-4.8 2.1-4.8 4.7v.6c0 2.6-2.1 4.7-4.7 4.7h-.8c-2.6 0-4.7 2.1-4.7 4.7v1h-7.3c-.9 0-1.7.7-1.7 1.7v3.2c0 .9.7 1.7 1.7 1.7h1.7v75.6c-8.4-2.3-17.1-4.7-27-6.5v-9.7h18.4l-11-23.3h5.9l-7.9-16.9h4.9l-14-29.7-15.7 29.7h5.9l-8.9 16.9h7.2l-12.3 23.3h18.4v8.3c-6.1-.8-12.6-1.2-19.7-1.2-10.9 0-20.6 1-29.3 2.6v-11.3c12.8-1.5 22.7-12.4 22.7-25.6V56.9c0-14.2-11.5-25.8-25.8-25.8-14.2 0-25.8 11.5-25.8 25.8v21.2c-3.3-6.2-9.7-10.4-17.2-10.4-10.7 0-19.5 8.7-19.5 19.5v32.6c0 10 7.5 18.2 17.1 19.3v9.3c-3.9.7-7.8 1.1-11.7 1.1H358v-12.1c0-4.6-3.7-8.4-8.4-8.4-4.6 0-8.4-3.7-8.4-8.4v-2.3c0-4.6-3.7-8.4-8.4-8.4h-10.6V52.6c0-5.5-4.4-9.9-9.9-9.9H132.9c-5.5 0-9.9 4.4-9.9 9.9v83.2l-86.9.1c-19.9 0-36 16.1-36 36v2.6h160.2v-23.1l2.8-8.1h7.2l2.8 8.1v23.1h398.1v-23l2.8-8.1h7.2l2.8 8.1v23h447.8v-36.8c.1-13.4-10.7-24.2-24.1-24.2zm-837.5 29.6h-6.9v-1.9h6.9v1.9zm255.4-5c-14.3 3-26.2 7-37.6 9.4V139c9.7-1.2 17.1-9.3 17.1-19.3v-9.2c3.6 8.1 11.3 14 20.4 15.1v12.5zm119.3-37.2h-8.2V86.4h8.2v14.5zm0-17.9h-8.2V68.5h8.2V83zm12.8 17.9h-8.2V86.4h8.2v14.5zm0-17.9h-8.2V68.5h8.2V83zm23.4 60.1h-6.9v-1.9h6.9v1.9z"/><circle class="st0" cx="327.2" cy="27.1" r="2.5"/><circle class="st0" cx="372.6" cy="50.5" r="2.5"/><circle class="st0" cx="743.2" cy="27.9" r="2.5"/><circle class="st0" cx="465.3" cy="37.7" r="1.8"/><circle class="st0" cx="956" cy="24" r="1.8"/><circle class="st0" cx="379.4" cy="18.5" r="1.8"/><circle class="st0" cx="653.8" cy="56.9" r="1.8"/><circle class="st0" cx="502" cy="48" r="1.8"/><circle class="st0" cx="988.4" cy="16.7" r="1.8"/><circle class="st0" cx="606" cy="45.6" r="1.8"/><circle class="st0" cx="197.8" cy="18.1" r="1.8"/><circle class="st0" cx="170.2" cy="34.6" r="1.8"/><circle class="st0" cx="342.7" cy="74.5" r="3.7"/><circle class="st0" cx="658.6" cy="24" r="3.7"/><circle class="st0" cx="525.6" cy="21" r="3"/><circle class="st0" cx="1005.2" cy="43.8" r="3"/><circle class="st0" cx="85.1" cy="8.5" r="1.8"/></svg>